<svg  xmlns="http://www.w3.org/2000/svg" viewBox="0 0 31.97 31.92"><rect fill="#ea0029" width="31.97" height="31.92" rx="3.19"/><path fill="#ffffff" d="M17.32,5.4H10.67A1.33,1.33,0,0,0,9.34,6.73V23.36a1.34,1.34,0,0,0,1.33,1.33h0v1.59h0a.4.4,0,0,0,.4.4h1.19a.4.4,0,0,0,.4-.4V24.69h6.65v1.59a.4.4,0,0,0,.4.4h1.2a.4.4,0,0,0,.4-.4h0V24.69a1.34,1.34,0,0,0,1.33-1.33V6.73A1.34,1.34,0,0,0,21.31,5.4Zm3,15.3a1,1,0,1,1-1,1,1,1,0,0,1,1-1Zm-8.65,0a1,1,0,1,1,0,2,1,1,0,0,1,0-2Zm9-6a.67.67,0,0,1,.67.67V18.7a.67.67,0,0,1-.67.67H11.33a.67.67,0,0,1-.66-.67V15.38a.67.67,0,0,1,.66-.67Zm-2.39-2.66a.39.39,0,0,1,.39.4V13a.39.39,0,0,1-.39.4H13.72a.4.4,0,0,1-.39-.4v-.53a.39.39,0,0,1,.39-.4h4.53Zm2.39-5.32a.67.67,0,0,1,.67.67v2.66a.67.67,0,0,1-.67.66H11.33a.67.67,0,0,1-.66-.66V7.4a.67.67,0,0,1,.66-.67Z" transform="translate(0 -0.08)"/></svg>