<svg xmlns="http://www.w3.org/2000/svg" xmlns:xlink="http://www.w3.org/1999/xlink"
	 viewBox="0 0 1024 1024" xml:space="preserve">
<path fill="#e07709" d="M919.8,0c56.3,0,102.3,46,102.3,102.3v818.7c0,56.3-46,102.3-102.3,102.3H102.1c-56.3,0-102.4-46.1-102.4-102.3l0-818.7
	C-0.2,46.1,45.9,0,102.2,0L919.8,0z"/>
<g fill="#ffffff">
	<path d="M672.9,775.3c-5.3-5.3-12.6-8.6-20.6-8.6v0h-19.1c-4.8,0-7.8,5.2-5.3,9.4l48.1,80c4,6.6,11.2,11,19.4,11
		c0,0,0,0,0,0h54.5c5.3,0,8.1-6.3,4.5-10.2L672.9,775.3z"/>
	<path d="M385.3,766.6L385.3,766.6l-19.1,0c0,0,0,0,0,0c-8.1,0-15.4,3.3-20.6,8.6l0,0l-81.4,81.5
		c-3.5,3.9-0.8,10.2,4.5,10.2h54.5c0,0,0,0,0,0c8.2,0,15.3-4.3,19.3-10.9l0.1-0.1l48.1-80C393.1,771.9,390.1,766.6,385.3,766.6z"/>
	<path d="M734.5,263.9c-1.1-8-2.9-15-5.6-21.2c-8.1-18.7-25.3-30.5-61.7-41.8c-0.1,0-0.1-0.1-0.2-0.1
		c-0.1,0-0.2,0-0.3-0.1c-37.6-12.2-88.5-19.2-149.3-20.3c-0.9,0-8.2-0.1-8.2-0.1h-0.1c-0.8,0-7.2,0-8.1,0.1
		c-60.8,1.1-111.7,8.1-149.3,20.3c-0.1,0-0.2,0.1-0.2,0.1l0,0c-0.1,0-0.1,0.1-0.2,0.1c-36.5,11.3-53.6,23.1-61.7,41.8
		c-2.7,6.2-4.5,13.2-5.6,21.2c0,0-42.7,190.1-42.7,274.4c0,2.5,0.2,16.5,0.2,16.5c2.8,86.4,45.4,175.6,115.4,175.6h304.8
		c70,0,112.5-89.1,115.4-175.6c0,0,0.3-14,0.3-16.5C777.3,454,734.5,263.9,734.5,263.9z M346.5,596.1c-19-0.1-34.4-15.6-34.4-34.7
		c0,0,0,0,0,0c0-19,15.4-34.5,34.4-34.6h0c19,0.1,34.4,15.5,34.4,34.6C381,580.5,365.5,596,346.5,596.1z M462.1,449.5
		c0,9.1-2.7,13.6-12.7,13.6H329.3c-7.2,0-10.9-3.6-10-10c3.6-49.9,14.4-120.6,25.8-168.2c2.2-9,8.2-10.9,12.7-10.9h93.3
		c5.4,0,10.9,2.7,10.9,10V449.5z M556.5,449.5V284c0-7.2,5.4-10,10.9-10h93.3c4.5,0,10.5,1.9,12.7,10.9
		c11.5,47.6,22.2,118.3,25.8,168.2c0.9,6.3-2.7,10-10,10H569.1C559.2,463.1,556.5,458.6,556.5,449.5z M706.4,561.5
		c0,19-15.4,34.5-34.4,34.7c-19-0.1-34.4-15.6-34.4-34.7c0-19.1,15.5-34.5,34.4-34.6C691,527,706.4,542.4,706.4,561.5
		C706.4,561.5,706.4,561.5,706.4,561.5z"/>
</g>
</svg>
