<svg xmlns="http://www.w3.org/2000/svg" xmlns:xlink="http://www.w3.org/1999/xlink" x="0px" y="0px"
	 viewBox="0 0 1024 1024" xml:space="preserve">

<path fill="#0075C9" d="M921.2,2.4c56.2,0,102.2,46,102.2,102.2v817.2c0,56.2-46,102.2-102.2,102.2h-819C46,1024,0,978,0,921.8l0-817.2
	C0,48.4,46,2.5,102.2,2.5L921.2,2.4z"/>
<g fill="#FFFFFF">
	<path d="M657.3,774.3l-18.1-43.2l0,0h-21.6l7.3,43.2l12.2,73.8c1.2,7.3,8,12.9,15.1,12.9h28.1c7.1,0,10.7-5.6,8-12.1
		L657.3,774.3z"/>
	<polygon points="401.2,731.2 401.2,731.2 401.2,731.2 	"/>
	<path d="M361.6,774.3L330.5,849c-2.7,6.5,0.9,12.1,8,12.1h28.1c7.2,0,13.9-5.6,15.2-12.9l12.3-73.8l7.2-43.2h-21.6
		L361.6,774.3z"/>
	<path d="M726.7,623.3l-20.8-238.6c-4.2-47.5-46.5-86.3-94.1-86.3h-59l33.8-34.1c7-6.9,7-18.1,0-25.4L522.3,175
		c-3.2-3.2-7.7-5.1-12.6-5.1c0,0,0,0-0.1,0l0,0c-4.7,0-9.2,1.7-12.7,5.1l-64.4,64.3c-7,6.9-7,18.5,0,25.5l33.9,33.7h-59
		c-47.6,0-89.9,38.8-94.1,86.3l-20.9,238.6c-4.1,47.4,31.4,86.3,79,86.3h276.2C695.3,709.6,730.9,670.8,726.7,623.3z M465.8,251.8
		l43.9-43.5l0,0h0l0,0l43.7,43.5l-43.7,44L465.8,251.8z M343.5,515l11.4-130.3c2.1-23.7,23.3-43.1,47-43.1h215.2
		c23.8,0,45,19.4,47,43.1L675.5,515c1,11.7-7.9,21.6-19.8,21.6H363.3C351.4,536.6,342.5,526.7,343.5,515z M368.8,644.5
		c-17.9,0-32.5-14.2-32.5-32.4c0-17.7,14.6-32.4,32.5-32.4c0,0,0,0,0,0h0c0,0,0,0,0,0c17.9,0,32.4,14.7,32.4,32.4
		C401.2,630.2,386.7,644.5,368.8,644.5z M682.7,612.2c0,17.8-14.5,32.3-32.3,32.3c0,0-0.1,0-0.1,0c-17.9,0-32.5-14.2-32.5-32.4
		c0-17.7,14.5-32.4,32.5-32.4C668.1,579.7,682.7,594.4,682.7,612.2C682.7,612.1,682.7,612.2,682.7,612.2z"/>
</g>
</svg>
